<?xml version="1.0" standalone="no"?>
<!DOCTYPE svg PUBLIC "-//W3C//DTD SVG 20010904//EN"
 "http://www.w3.org/TR/2001/REC-SVG-20010904/DTD/svg10.dtd">
<svg version="1.0" xmlns="http://www.w3.org/2000/svg"
 width="500.000000pt" height="500.000000pt" viewBox="0 0 500.000000 500.000000"
 preserveAspectRatio="xMidYMid meet">
<metadata>
Created by potrace 1.14, written by Peter Selinger 2001-2017
</metadata>
<g transform="translate(0.000000,500.000000) scale(0.100000,-0.100000)"
fill="#000000" stroke="none">
<path d="M162 4222 c-21 -3 -22 -7 -16 -65 3 -34 7 -73 10 -87 27 -173 28
-2290 0 -2436 -2 -10 -7 -51 -11 -89 l-6 -70 346 0 346 0 -6 57 c-4 32 -8 70
-10 85 -22 176 -28 670 -9 666 6 -1 33 -5 60 -8 194 -25 371 -121 502 -274
116 -134 244 -330 300 -456 l31 -70 365 0 c201 0 366 2 366 5 0 5 -22 32 -73
90 -13 14 -52 63 -87 110 -36 47 -67 87 -70 90 -3 3 -28 37 -55 75 -73 105
-208 233 -297 283 -78 43 -284 117 -354 126 -22 3 -48 7 -59 9 -11 3 -59 11
-107 18 -114 17 -112 21 22 33 197 18 439 83 547 148 174 104 239 242 209 442
-8 51 -65 153 -106 190 -102 92 -229 127 -440 122 -202 -5 -301 -32 -441 -121
-140 -90 -243 -225 -310 -410 -18 -49 -18 -41 -15 600 3 358 7 670 10 695 3
25 8 70 11 100 3 30 8 74 11 98 5 41 5 42 -23 43 -110 3 -622 3 -641 1z m1218
-1167 c60 -12 106 -49 135 -110 51 -103 34 -259 -41 -366 -92 -134 -308 -218
-592 -233 l-84 -4 6 64 c10 113 46 248 94 354 100 220 288 336 482 295z m-150
-755 c0 -5 -5 -10 -11 -10 -5 0 -7 5 -4 10 3 6 8 10 11 10 2 0 4 -4 4 -10z"/>
<path d="M3888 3204 c-136 -27 -298 -110 -364 -186 -52 -61 -102 -137 -119
-180 -10 -27 -20 -48 -23 -48 -10 0 11 310 23 348 4 9 -69 12 -340 12 -322 0
-344 -1 -341 -17 2 -10 7 -52 11 -93 4 -41 8 -87 10 -101 14 -112 18 -377 18
-1029 1 -746 -3 -928 -23 -1105 -6 -49 -12 -104 -14 -122 l-4 -32 345 0 345
-1 -7 78 c-4 42 -9 84 -10 93 -16 82 -29 919 -15 919 4 0 22 -17 41 -38 85
-94 223 -190 334 -231 162 -61 389 -83 525 -50 19 4 50 11 68 14 51 9 136 43
217 88 194 109 317 269 381 499 22 79 27 117 29 253 4 176 -8 269 -50 395 -29
89 -96 205 -155 272 -92 105 -269 208 -415 242 -38 9 -81 19 -95 22 -53 13
-306 12 -372 -2z m134 -178 c135 -64 237 -232 272 -446 36 -216 22 -524 -30
-710 -36 -127 -123 -254 -199 -292 -193 -97 -459 7 -658 255 l-34 42 2 320 c1
181 7 348 13 384 35 199 113 335 238 416 78 51 134 65 244 62 78 -3 105 -9
152 -31z"/>
</g>
</svg>
